
<svg xmlns="http://www.w3.org/2000/svg" version="1.1" xmlns:xlink="http://www.w3.org/1999/xlink" preserveAspectRatio="none" x="0px" y="0px" width="210px" height="700px" viewBox="0 0 210 700">
<defs>
<g id="Layer0_0_MEMBER_0_MEMBER_0_MEMBER_0_MEMBER_0_FILL">
<path fill="#FFFFFF" stroke="none" d="
M 49.5 31.5
Q 49.5 30.65 48.75 30 48.05 29.3 47.2 29.3
L 44.4 29.3 44.4 23.9
Q 44.4 20.5 41.7 17.8 38.75 14.9 34.9 14.9 31 14.9 28.1 17.8 25.4 20.5 25.4 23.9
L 25.4 29.3 22.8 29.3
Q 21.75 29.3 21.2 30 20.5 30.55 20.5 31.65
L 20.5 49
Q 20.5 50.1 21.2 50.6 21.9 51.3 22.8 51.3
L 47.2 51.3
Q 48.25 51.3 48.75 50.6 49.5 49.95 49.5 49
L 49.5 31.5
M 40.9 23.9
L 40.9 29.3 28.9 29.3 28.9 23.9
Q 28.9 21.9 30.5 20.3 32.35 18.3 34.9 18.3 37.5 18.3 39.2 20.3 40.9 21.85 40.9 23.9 Z"/>
</g>

<g id="Layer0_0_MEMBER_1_MEMBER_0_MEMBER_0_MEMBER_0_FILL">
<path fill="#000000" fill-opacity="0.00392156862745098" stroke="none" d="
M 0 70
L 70 70 70 0 0 0 0 70 Z"/>
</g>

<g id="Layer0_0_MEMBER_2_MEMBER_0_MEMBER_0_MEMBER_0_FILL">
<path fill="#000000" fill-opacity="0.00392156862745098" stroke="none" d="
M 70 70
L 0 70 0 140 70 140 70 70 Z"/>
</g>

<g id="Layer0_0_MEMBER_3_FILL">
<path fill="#FFFFFF" stroke="none" d="
M 26.5 88.45
Q 23.2 85.9 18.5 86.25 17.8 97.4 20.9 100.65 16.5 97.2 11.6 97.05 12.15 105.7 19.8 111.05 15.2 109.85 11.6 111.05 15.1 117.75 22.8 119.05 20 119.85 16.9 125.85 24.95 124.7 29.65 123.1 35.05 121.2 36.7 118.45 41.4 126.3 48.1 129.2 49.95 129.95 51.25 128.9 52.4 127.95 52.5 126.15 52.65 124.35 51.65 123.1 50.45 121.65 48.3 121.8 44.2 121.3 40.7 116.2 53.2 115.15 61 107.2 54.45 104.85 51.1 106.8 56.8 101.25 53.8 92.6 49.5 95.65 48 98.6 50.1 90.3 43.8 83 38.7 88.75 38.7 92.6 37.35 84.25 29.6 80.5 26.2 84.15 26.5 88.45 Z"/>
</g>
</defs>

<g transform="matrix( 1, 0, 0, 1, 0,0) ">
<use xlink:href="#Layer0_0_MEMBER_0_MEMBER_0_MEMBER_0_MEMBER_0_FILL"/>
</g>

<g transform="matrix( 1, 0, 0, 1, 0,0) ">
<use xlink:href="#Layer0_0_MEMBER_1_MEMBER_0_MEMBER_0_MEMBER_0_FILL"/>
</g>

<g transform="matrix( 1, 0, 0, 1, 0,0) ">
<use xlink:href="#Layer0_0_MEMBER_2_MEMBER_0_MEMBER_0_MEMBER_0_FILL"/>
</g>

<g transform="matrix( 1, 0, 0, 1, 0,0) ">
<use xlink:href="#Layer0_0_MEMBER_3_FILL"/>
</g>
</svg>
