
<svg xmlns="http://www.w3.org/2000/svg" version="1.1" xmlns:xlink="http://www.w3.org/1999/xlink" preserveAspectRatio="none" x="0px" y="0px" width="330px" height="80px" viewBox="0 0 330 80">
<defs>
<linearGradient id="Gradient_1" gradientUnits="userSpaceOnUse" x1="-294.5" y1="-1" x2="-294.5" y2="-1" spreadMethod="pad">
<stop  offset="0%" stop-color="#B12B2B"/>

<stop  offset="100%" stop-color="#6A1111"/>
</linearGradient>

<g id="the_seasons_0_Layer0_0_FILL">
<path fill="#000000" stroke="none" d="
M 51.6 3.55
L 48.45 18.25 51.85 18.25 55 3.55 60.3 3.55 60.95 0.5 46.9 0.5 46.25 3.55 51.6 3.55
M 46.1 22.1
Q 45 20.65 43.35 19.55 41.65 18.45 39.5 17.75 37.35 17.05 35.15 16.65 32.95 16.2 31.05 15.95 29.1 15.75 27.85 15.75 25.25 15.75 22.1 16.25 19 16.8 16.3 18.1 13.65 19.35 11.85 21.45 10.05 23.55 10.05 26.9 10.05 28.5 10.55 30.1 11.1 31.75 11.95 33.2 12.85 34.65 14.15 35.85 15.5 37 16.9 37.8
L 43 52.05
Q 44.3 52.75 45.05 53.45 45.8 54.15 46.1 54.9 46.4 55.65 46.5 56.6 46.6 57.6 46.6 58.8 46.7 61.55 44.85 62.85 43 64.2 40.35 64.75 37.7 65.3 34.85 65.35 32 65.4 30.25 65.5 24.95 65.25 20.4 64.6 15.85 64 12.25 62.25 8.7 60.5 6.7 57.2 4.65 53.9 4.65 48.2 3.7 48.2 2.8 48.8 1.95 49.4 1.35 50.35 0.7 51.25 0.35 52.25 0 53.3 0 54.15 0.9 57.65 3.5 60.45 6.15 63.2 9.85 65.25 13.55 67.35 18.05 68.55 22.5 69.8 27.1 70.25 31.65 70.7 35.95 70.3 40.25 69.9 43.8 68.6 47.3 67.35 49.6 65.05 51.85 62.75 52.3 59.6 52.75 56.45 51.3 53.95 49.85 51.45 47.25 49.25 44.65 47.05 41.2 45.2 37.7 43.35 34.05 41.65 30.4 39.9 26.85 38.3 23.3 36.65 20.45 34.85 17.6 33.05 15.9 31.1 14.25 29.1 14.25 26.75 14.25 24.25 16.05 22.9 17.85 21.55 20.35 20.9 22.85 20.25 25.5 20.05 28.15 19.9 29.8 19.9 31.65 19.7 33.3 20.25 35 20.75 36.5 21.65 38 22.5 39.4 23.4 40.8 24.25 42.1 25 43.45 25.7 44.7 25.95 45.95 26.2 47.2 25.5 47.2 23.55 46.1 22.1
M 72.5 10.05
Q 72.6 9.55 72.65 9 72.7 8.5 72.7 8 72.7 7.15 72.45 6.45 72.15 5.75 71.5 5.35 70.8 4.9 69.65 4.9 68.25 4.9 66.95 5.65 65.6 6.3 64.65 7.6
L 66.3 0 62.9 0 59.05 18.25 62.4 18.25 64 10.6
Q 64.4 9.8 65.05 9.2 65.7 8.55 66.35 8.25 67.05 7.85 67.55 7.85 68.3 7.85 68.7 8.3 69.1 8.75 69.1 9.7 69.1 9.95 69.05 10.25 69.05 10.55 68.95 10.9
L 67.4 18.25 70.75 18.25 72.5 10.05
M 81.1 30.35
Q 82.25 31.65 82.85 33.35 83.4 35.1 83.4 36.85 83.4 38.5 81.65 40.2 79.9 41.95 77.45 43.25 75.05 44.6 72.7 45.4 70.4 46.25 69.15 46.25 67.05 45.9 65.8 45.7 64.6 45.65 64 45.75 63.35 45.9 63.25 46.2 63.1 46.5 63.1 46.95 63.1 48.35 63.65 49.05 64.15 49.75 65.05 50.1 65.9 50.45 67 50.45 68.1 50.45 69.15 50.45 72 50.45 75.25 49.55 78.5 48.6 81.3 46.9 84.1 45.2 85.95 42.65 87.8 40.1 87.8 36.95 87.8 34.3 87.25 32 86.65 29.65 85.3 27.85 83.95 26.05 81.8 24.8 79.6 23.55 76.7 23.2 71.8 23.2 68.05 25.1 64.35 27 61.75 30.15 59.15 33.35 57.8 37.5 56.4 41.7 56.4 46.25 56.4 51.7 58.4 56.05 60.4 60.4 63.8 63.45 67.25 66.45 71.7 68.15 76.2 69.8 81.3 69.8 83.4 69.8 85.8 69.45 88.15 69.1 90.55 68.35 93 67.6 95.15 66.35 97.3 65.15 98.7 63.2
L 82.95 64.25
Q 77.5 64 73.8 63 70.15 62 67.7 60.45 65.3 58.9 64 56.9 62.75 54.85 62.2 52.65 61.6 50.45 61.5 48.2 61.45 45.9 61.45 43.6 61.45 40.6 62.4 37.9 63.35 35.15 65.1 32.95 66.9 30.7 69.4 29.3 71.9 27.9 74.95 27.6 76.9 27.45 78.45 28.25 79.95 29 81.1 30.35
M 82 18.05
Q 83.25 17.65 84.3 16.85 85.35 16.1 86 15.1
L 83.35 14.25
Q 82.85 15.1 81.95 15.6 81.05 16.05 80.05 16.05 79.15 16.05 78.55 15.65 78 15.3 77.7 14.6 77.4 13.95 77.4 13.05 77.4 12.9 77.4 12.75 77.65 12.75 77.85 12.75 78.75 12.8 79.45 12.8 83.25 12.8 85.15 11.7 87.05 10.65 87.05 8.55 87.05 7.4 86.45 6.6 85.85 5.75 84.8 5.35 83.75 4.9 82.35 4.9 80.6 4.9 79.1 5.55 77.6 6.2 76.45 7.3 75.35 8.4 74.75 9.9 74.1 11.35 74.1 12.95 74.1 14.55 74.75 15.8 75.35 17.1 76.6 17.8 77.8 18.5 79.45 18.5 80.75 18.5 82 18.05
M 124.95 31.25
Q 127.35 32.45 129.4 34.35 131.45 36.25 132.8 38.6 134.1 40.95 134.1 43.25
L 134.2 44.05
Q 134.2 44.85 134.2 44.95 128.75 42.8 124.3 42.3 119.85 41.75 116.4 42.4 112.95 43 110.4 44.45 107.85 45.9 106.15 47.75 104.5 49.6 103.7 51.5 102.9 53.45 102.8 54.95 102.8 59.5 105.05 62.4 107.3 65.3 110.75 66.95 114.15 68.55 118.3 69.2 122.4 69.8 126.1 69.8 126.8 69.8 128.55 69.5 130.25 69.2 132.2 68.75 134.2 68.3 136.35 67.65 138.5 67 140.25 66.35 142 65.75 143.1 65.15 144.2 64.55 144.2 64 144.2 63.45 144.15 62.95 144.05 62.4 143.35 62.15 143.15 62.15 142.75 62.15 142.35 62.15 141.9 62.1 141.4 62.05 140.95 62.05 140.55 62.05 140.35 62.05 138.05 62.05 135.8 62.35 133.5 62.6 131.15 62.95 128.85 63.3 126.45 63.55 124.1 63.8 121.65 63.8 120.15 63.8 117.65 63.45 115.2 63.1 112.85 62.2 110.45 61.25 108.8 59.8 107.15 58.35 107.15 56.25 107.15 54.35 108.05 52.9 108.95 51.45 110.5 50.4 112.05 49.3 114.05 48.55 116 47.85 117.95 47.4 119.85 46.95 121.65 46.75 123.45 46.6 124.8 46.6 126 46.85 127.95 47.45 129.9 48 132.15 49.45 134.35 50.9 136.65 53.45 138.95 56 140.8 60.15
L 141.25 60.2
Q 141.6 60.3 142.1 60.35 142.65 60.4 143.05 60.45 143.5 60.5 143.6 60.5 144.05 56.95 143.5 52.95 143.05 49.05 141.7 45.25 140.35 41.4 138.35 37.85 136.3 34.3 133.65 31.55 130.95 28.85 127.75 27.05 124.55 25.25 121 24.9 119.6 24.9 118.35 25.3 117.05 25.7 116.05 26.4 115.05 27.1 114.45 28.25 113.9 29.35 113.9 30.95 113.9 31.05 114.2 31.3 114.5 31.55 114.7 31.75 114.75 31.85 114.85 31.9 114.85 32 115.05 32 115.85 32 116.4 31.7 116.95 31.4 117.6 31 118.2 30.6 118.85 30.35 119.5 30.05 120.4 30.05 122.6 30.05 124.95 31.25
M 163.85 33.55
Q 166.35 33.35 168.55 33.7 170.75 34.1 172.4 35.1 174.05 36.05 174.4 37.7 173.45 39.4 173.4 40.5 173.35 41.6 173.8 42.15 174.25 42.75 175.05 42.75 175.85 42.8 176.6 42.25 177.3 41.7 177.75 40.55 178.2 39.4 178.05 37.65 177.95 34.65 175.95 32.6 174 30.6 171.05 29.7 168.1 28.75 164.6 28.8 161.05 28.85 157.95 29.85 154.8 30.85 152.6 32.75 150.35 34.65 149.8 37.45 149.9 41.3 151.4 43.8 152.9 46.25 155.35 47.65 157.8 49.05 160.95 49.7 164.05 50.4 167.3 50.75 170.55 51.1 173.65 51.4 176.7 51.7 179.15 52.5 181.65 53.3 183.1 54.75 184.55 56.2 184.45 58.75 184.45 61.35 182.75 62.65 181.1 63.9 178.75 64.4 176.35 64.9 173.7 64.85 171.1 64.8 169.25 64.8 166.85 64.8 165.35 64.7 163.9 64.6 162.75 64.25 161.6 63.9 160.25 63.3 158.85 62.7 156.6 61.7 155.8 61.35 155.1 60.85 154.4 60.3 153.75 59.75 153.05 59.15 152.3 58.75 151.5 58.35 150.7 58.35 150 58.35 149.4 58.5 148.85 58.65 148.15 59.15 149.3 62 151.15 63.8 153 65.65 155.3 66.85 157.65 68.05 160.35 68.6 163.1 69.2 165.75 69.45 168.45 69.7 171.05 69.75 173.65 69.8 175.9 69.8 178.2 69.8 180.75 69.2 183.3 68.55 185.45 67.25 187.6 65.95 189 63.95 190.4 62 190.4 59.25 190.4 55.65 188.95 53.4 187.45 51.15 184.9 49.85 182.35 48.55 179.15 47.95 176 47.4 172.6 47.1 169.25 46.75 166.05 46.4 162.8 46.05 160.35 45.3 157.9 44.5 156.35 43.05 154.8 41.6 154.8 38.95 154.65 37.45 155.9 36.3 157.2 35.15 159.25 34.45 161.35 33.75 163.85 33.55
M 218.55 32.55
Q 214.2 32.55 209.95 33.7 205.7 34.9 202.25 37.35 198.85 39.85 196.75 43.45 194.6 47.05 194.6 51.85 194.6 56 196.05 59.4 197.45 62.75 199.95 65.05 202.45 67.35 205.85 68.6 209.2 69.9 213.25 69.9 217.2 69.9 221 68.6 224.75 67.35 227.75 64.9 230.75 62.5 232.5 59 234.25 55.45 234.25 51 234.25 49.05 233.75 47 233.2 44.95 232.2 42.9 231.2 40.9 229.8 39 228.35 37.1 226.55 35.65 224.75 34.2 222.8 33.35 220.8 32.55 218.55 32.55
M 204.8 41.05
Q 207.35 39.4 210.5 38.55 213.6 37.7 216.5 37.7 221.6 39.55 224.5 41.7 227.4 43.85 228.5 46.2 229.6 48.55 229.3 50.85 229 53.2 227.65 55.35 226.35 57.5 224.35 59.3 222.4 61.1 220.25 62.35 218.1 63.65 215.95 64.3 213.8 64.95 212.3 64.8 209.45 64.8 207 63.7 204.55 62.6 202.75 60.75 200.95 58.9 199.95 56.4 198.95 53.9 198.95 51.15 198.95 47.85 200.6 45.3 202.25 42.75 204.8 41.05
M 245.35 47.85
Q 245.35 45 246.35 42.65 247.35 40.25 249.1 38.6 250.85 36.95 253.25 36.05 255.6 35.15 258.35 35.15 261.25 35.15 263.8 37.8 266.35 40.45 268.1 44.95 269.85 49.4 270.65 55.35 271.45 61.25 270.65 68.05 270.65 68.4 270.95 68.55 271.25 68.75 271.7 68.9 272.15 69 272.55 69.05 273 69.1 273.2 69.1 274.25 69.1 274.95 67.9 275.65 66.7 275.95 65.15 276.25 63.55 276.4 62 276.55 60.4 276.55 59.6 276.55 57.3 276.1 54.2 275.65 51.1 274.7 47.8 273.7 44.5 272.3 41.3 270.9 38.15 268.9 35.6 266.95 33.05 264.45 31.5 261.95 30 258.95 30 256.65 30 254.35 30.95 252 31.9 249.95 33.05 247.85 34.2 246.1 35.15 244.35 36.15 243.15 36.15 242.7 36.15 242.5 35.85 242.35 35.5 242.25 35.15 242.15 34.8 241.95 34.55 241.7 34.3 241.2 34.3 240.5 34.3 239.9 34.5 239.35 34.75 239.35 35.5 239.35 37.45 239.35 40.85 239.35 44.2 239.55 48.05 239.8 51.85 240.35 55.85 240.95 59.8 241.95 62.95 242.95 66.1 244.6 68.15 246.3 70.15 248.75 70.15 248.75 67.35 248.25 64.55 247.7 61.7 247.05 58.95 246.4 56.2 245.85 53.4 245.35 50.65 245.35 47.85
M 302.6 29.7
Q 299.65 28.75 296.15 28.8 292.6 28.85 289.5 29.85 286.35 30.85 284.15 32.75 281.9 34.65 281.35 37.45 281.45 41.3 282.95 43.8 284.45 46.25 286.9 47.65 289.35 49.05 292.5 49.7 295.6 50.4 298.85 50.75 302.1 51.1 305.2 51.4 308.25 51.7 310.7 52.5 313.2 53.3 314.65 54.75 316.1 56.2 316 58.75 316 61.35 314.3 62.65 312.65 63.9 310.3 64.4 307.9 64.9 305.25 64.85 302.65 64.8 300.8 64.8 298.4 64.8 296.9 64.7 295.45 64.6 294.3 64.25 293.15 63.9 291.8 63.3 290.4 62.7 288.15 61.7 287.35 61.35 286.65 60.85 285.95 60.3 285.3 59.75 284.6 59.15 283.85 58.75 283.05 58.35 282.25 58.35 281.55 58.35 280.95 58.5 280.4 58.65 279.7 59.15 280.85 62 282.7 63.8 284.55 65.65 286.85 66.85 289.2 68.05 291.9 68.6 294.65 69.2 297.3 69.45 300 69.7 302.6 69.75 305.2 69.8 307.45 69.8 309.75 69.8 312.3 69.2 314.85 68.55 317 67.25 319.15 65.95 320.55 63.95 321.95 62 321.95 59.25 321.95 55.65 320.5 53.4 319 51.15 316.45 49.85 313.9 48.55 310.7 47.95 307.55 47.4 304.15 47.1 300.8 46.75 297.6 46.4 294.35 46.05 291.9 45.3 289.45 44.5 287.9 43.05 286.35 41.6 286.35 38.95 286.2 37.45 287.45 36.3 288.75 35.15 290.8 34.45 292.9 33.75 295.4 33.55 297.9 33.35 300.1 33.7 302.3 34.1 303.95 35.1 305.6 36.05 305.95 37.7 305 39.4 304.95 40.5 304.9 41.6 305.35 42.15 305.8 42.75 306.6 42.75 307.4 42.8 308.15 42.25 308.85 41.7 309.3 40.55 309.75 39.4 309.6 37.65 309.5 34.65 307.5 32.6 305.55 30.6 302.6 29.7 Z"/>
</g>

<g id="snowflake_0_Layer0_0_FILL">
<path fill="#0096D8" stroke="none" d="
M 22.5 4.45
L 22.45 4.45
Q 22.2 4.15 21.85 3.95 21.8 3.95 21.75 3.95 21.3 3.95 20.95 4.05 20.85 4.15 20.85 4.25
L 20.85 4.3
Q 20.5 4.8 20.4 5.45 19.55 8 18.85 10.65
L 18.8 10.65
Q 18.4 10.85 18.1 11.05 18.1 11.1 18.1 11.15 18.05 11.15 18 11.15 17.65 11.4 17.2 11.55 17.2 11.6 17.15 11.6 16.55 11.95 15.9 12.35
L 14.65 11.8
Q 14.65 9.95 14.65 8.1 16.55 6.15 18.45 4.25
L 18.5 4.2
Q 18.5 4.15 18.55 4.15 18.9 3.85 19.1 3.45
L 19.1 3.4
Q 19.1 3.05 19.1 2.7
L 19.05 2.7
Q 18.9 2 18.1 1.95 17.95 1.95 17.9 2 16.1 3.3 14.65 4.95 14.65 4.9 14.65 4.85 14.7 2.7 14.6 0.7 14.55 0.7 14.55 0.65 14.25 0.25 13.85 0 13.8 0 13.75 0 13.2 0 12.85 0.25 12.85 0.3 12.85 0.35 12.65 0.45 12.65 0.7 12.45 2.8 12.35 4.9 11.95 4.55 11.6 4.15 11 3.55 10.45 2.8 9.85 2.05 8.7 1.95
L 8.65 1.95
Q 8.15 2.2 7.95 2.7 7.95 3.05 7.95 3.4
L 7.95 3.45
Q 10.15 5.75 12.35 8.05 12.4 8.1 12.45 8.1 12.45 9.8 12.45 11.55
L 11.2 12.35
Q 9.7 11.55 8.15 10.65 7.6 8.65 7.2 6.65 6.85 5 6.05 3.95 6 3.95 5.95 3.95 5.45 3.95 5.05 4.05 5.05 4.1 5.05 4.15
L 5 4.15
Q 4.65 4.35 4.45 4.85 4.45 4.9 4.5 4.95 5.05 7.05 5.45 9 3.65 7.9 1.7 6.95
L 1.65 6.95
Q 1.15 7.05 0.8 7.35
L 0.8 7.4
Q 0.7 7.65 0.55 7.9 0.55 8.4 0.8 8.7
L 0.8 8.75 0.85 8.75
Q 2.5 9.9 4.4 10.9
L 4.4 10.95
Q 2.45 11.5 0.55 12.05
L 0.5 12.1
Q 0.15 12.25 0 12.6 0 13 0 13.35 0 13.4 0 13.45 0.85 14.5 2.4 13.9 3.4 13.55 4.4 13.25 4.7 13.15 4.9 13.05 5.95 12.85 6.9 12.55
L 6.95 12.55
Q 8.7 13.45 10.35 14.4
L 10.35 15.55
Q 9.05 16.4 7.65 17.15 7.65 17.2 7.65 17.25 7.4 17.3 7.2 17.3 5.7 17.25 4.25 16.75 2.6 16.2 0.75 15.9 0.7 15.9 0.65 15.95 0.3 16.2 0 16.55 0 17 0 17.4
L 0 17.45
Q 0.2 17.75 0.5 17.95
L 0.55 17.95 0.55 18
Q 2.5 18.5 4.4 19.05
L 4.4 19.1
Q 2.45 20.1 0.8 21.35 0.65 21.45 0.55 21.65 0.55 22.75 1.4 23.05 2.65 22.8 3.55 22.2 4.45 21.55 5.45 20.95 5.15 22.5 4.7 24.25
L 4.7 24.3 4.65 24.3
Q 4.65 24.6 4.45 24.7 4.4 25.75 5.2 26
L 5.2 26.05
Q 5.55 26.05 5.95 26.05 6 26.05 6.05 26.05 6.35 25.8 6.55 25.45
L 6.6 25.45
Q 6.75 24.8 6.9 24.1
L 6.95 24.1 6.95 24.05
Q 6.95 23.95 6.95 23.8 7.6 21.7 8.15 19.4
L 8.2 19.4
Q 9.8 18.45 11.45 17.5
L 12.45 18.3
Q 12.5 20.15 12.3 22.1 12.25 22.15 12.2 22.25 12.15 22.25 12.15 22.35
L 12.1 22.35
Q 10.75 23.6 9.45 24.9 9.45 24.95 9.45 25
L 9.4 25
Q 8.7 25.7 8 26.45
L 8 26.55
Q 8 26.6 8 26.65
L 7.95 26.65
Q 7.9 27.15 7.95 27.45 8 27.5 8 27.55 8.2 27.9 8.65 28.05 9.2 28.1 9.55 27.95
L 9.6 27.9 9.6 27.85
Q 10.9 26.7 12.05 25.5 12.05 25.45 12.1 25.45
L 12.1 25.4
Q 12.55 24.8 12.5 25.9 12.45 27.45 12.45 29.05 12.45 29.1 12.45 29.15 12.45 29.25 12.5 29.3 12.8 29.8 13.45 30
L 13.5 30
Q 14.25 29.9 14.55 29.35
L 14.6 29.35
Q 14.7 27.3 14.65 25.15 14.65 25.1 14.65 25.05 16.1 26.65 17.8 28.05
L 17.85 28.05
Q 18.75 28.1 19 27.55 19.15 27.2 19.1 26.7
L 19.1 26.65
Q 18.55 25.85 17.85 25.25 17.8 25.2 17.75 25.2
L 17.75 25.15
Q 16.2 23.55 14.65 21.95 14.65 21.9 14.65 21.85 14.65 20.2 14.65 18.55
L 16.05 17.75
Q 17.45 18.55 18.8 19.35 18.85 19.35 18.85 19.4 19.3 20.8 19.6 22.25 19.6 22.3 19.6 22.35 20 24.2 20.75 25.7 20.85 25.85 20.95 25.95 21.35 26.1 21.85 26.05
L 21.9 26.05
Q 22.25 25.75 22.5 25.35
L 22.5 25.3
Q 22.5 25.25 22.5 25.2 22.1 23.1 21.6 21.05 23.1 21.95 24.75 22.7
L 24.75 22.75
Q 24.8 22.75 24.85 22.75 25.15 22.9 25.5 23.05 25.55 23.05 25.6 23.05 26.3 22.9 26.4 22.2 26.4 22.15 26.45 22.15 26.45 21.6 26.25 21.25
L 26.25 21.2
Q 25.9 21 25.65 20.85
L 25.6 20.85
Q 25.6 20.8 25.55 20.8 24 20 22.65 19.05 23.1 18.9 23.6 18.8
L 23.65 18.8
Q 23.65 18.75 23.65 18.7 25 18.45 26.35 18.05
L 26.35 18
Q 26.8 17.8 27 17.45
L 27 17.4
Q 27 17 27 16.55 26.75 16.15 26.3 15.9
L 26.25 15.9
Q 24.05 16.35 22 16.95
L 22 17
Q 21.95 17 21.9 17 20.9 17.3 19.85 17.45
L 19.85 17.4
Q 19.1 17 18.45 16.65
L 18.4 16.65
Q 17.65 16.15 16.9 15.7
L 16.9 14.3
Q 18.35 13.45 19.85 12.6
L 19.85 12.55
Q 23.05 13.35 26.25 14.1
L 26.3 14.1
Q 26.65 13.85 26.95 13.6 27 13.55 27 13.5 27.1 13.05 27 12.55 27 12.5 27 12.45 25.7 11.55 23.85 11.3 23.15 11.15 22.65 10.9 23.6 10.4 24.5 9.85
L 24.55 9.85
Q 25.75 9.3 26.45 8.3
L 26.45 8.25
Q 26.4 7.1 25.4 6.95 23.7 7.65 22.25 8.75 21.7 9.15 21.6 8.65 21.95 7.6 22.15 6.6 22.2 6.55 22.2 6.5
L 22.2 6.45
Q 22.65 5.55 22.5 4.45 Z"/>
</g>

<g id="sun_0_Layer0_0_FILL">
<path fill="#B38422" stroke="none" d="
M 24.45 7.4
L 22.9 2.85 18.15 2.7 14.3 0 10.35 2.65 5.55 2.65 3.95 7.15 0.1 9.95 1.45 14.55 0 19.15 3.75 22.05 5.3 26.6 10.05 26.7 13.9 29.5 17.85 26.8 22.7 26.8 24.25 22.25 28.1 19.45 26.75 14.85 28.2 10.3 24.45 7.4
M 20.65 8.85
Q 20.7 8.95 20.8 9.05 23.05 11.5 23.05 14.85 23.05 18.5 20.5 21.05 17.95 23.65 14.35 23.65 10.7 23.65 8.15 21.05 5.5 18.5 5.5 14.85 5.5 11.25 8.15 8.7 10.7 6.15 14.35 6.15 17.95 6.15 20.5 8.7 20.55 8.8 20.65 8.85
M 19.55 10.35
Q 19.45 10.15 19.4 10.1 19.35 10.05 19.25 9.95 17.2 7.95 14.35 7.95 11.45 7.95 9.5 9.95 7.4 12.05 7.4 14.9 7.4 17.8 9.5 19.8 11.45 21.85 14.35 21.85 17.2 21.85 19.25 19.8 21.3 17.8 21.3 14.9 21.3 12.2 19.55 10.35 Z"/>
</g>

<g id="leaf_red_0_Layer0_0_FILL">
<path fill="#581112" fill-opacity="0.996078431372549" stroke="none" d="
M 1465 360
Q 1464.5 360 1464.15 360.2 1425.55 384.05 1387 408 1387 408.5 1387 409 1355.35 428.35 1328.15 452.3 1280.75 494.2 1246 549 1246 549.5 1246 550 1246 550.5 1245.75 550.85 1243.5 554 1241 557 1241 557.5 1241 558 1240.5 558 1240.5 557.9 1240 555 1240 552 1250.1 506.6 1254.95 456 1255 455.5 1255 455 1263.55 410.1 1260.05 358 1260 357.5 1260 357 1260 356.5 1259.95 356 1257.95 330.55 1253 308 1253 307.5 1252.9 307 1249.4 285.55 1243 267 1243 266.5 1243.05 266 1243.25 261.25 1241 259 1241 258.5 1240.95 258 1240.45 252.55 1238 249 1238 248.5 1237.9 248 1236.65 242.35 1235 237 1235 236.5 1234.85 236.05 1229.8 221.2 1224 207 1224 206.5 1223.9 206.05 1222.2 199.8 1220 194 1220 193.5 1219.8 193.1 1213.85 180.15 1209 166 1209 165.5 1208.8 165.1 1200.9 148.1 1193 131 1193 130.5 1192.75 130.15 1187.45 122.05 1183 113 1183 112.5 1182.75 112.2 1177.45 105.05 1173 97 1173 96.5 1172.75 96.2 1171 94 1169 92 1169 91.5 1168.8 91.1 1165.7 84.8 1161 80 1161 79.5 1160.85 79.05 1159.55 75.95 1157 74 1157 73.5 1156.8 73.1 1154.65 69.35 1152 66 1152 65.5 1151.75 65.15 1149.7 62.3 1147 60 1147 59.5 1146.8 59.1 1146 57.5 1145 56 1145 55.5 1144.75 55.3 1141.15 52.35 1139 48 1139 47.5 1138.75 47.2 1132.85 40.15 1127 33 1127 32.5 1126.8 32.15 1125.45 30 1124 28 1124 27.5 1123.75 27.25 1119.85 23.7 1117 19 1117 18.5 1116.75 18.25 1111.8 13.7 1108 8 1108 7.5 1107.75 7.2 1104.6 2.95 1100 0 1099.5 0 1099.15 0.2 1077.8 13.3 1058 28 1058 28.5 1058 29 1057.5 29 1057.15 29.25 1044.15 38.6 1031 48 1031 48.5 1031 49 1013.55 60.55 997.25 73 946.25 111.75 912 167 912 167.5 912 168 911.5 168 911.4 168.2 906.25 177.75 900 186 900 186.5 900 187 900 187.5 900 188 899.5 188 899.4 188.2 889.05 207.05 878 225 878 224.5 877.75 224.25 872.8 219.2 868 214 868 213.5 867.8 213.1 866.15 209.85 863 208 863 207.5 862.75 207.15 857.6 199.9 851 194 851 193.5 850.8 193.1 850.5 192.5 850 192 850 191.5 849.75 191.3 845.85 188.15 843 184 843 183.5 842.75 183.25 838.5 179 834 175 834 174.5 833.8 174.1 833.5 173.5 833 173 833 172.5 832.75 172.25 827 166.5 821 161 821 160.5 820.75 160.25 819.5 159 818 158 818 157.5 817.75 157.15 812.7 149.8 805 145 805 144.5 804.75 144.25 803.5 143 802 142 802 141.5 801.75 141.25 799 138.5 796 136 796 135.5 795.75 135.35 793.25 133.75 791 132 791 131.5 790.75 131.25 786.45 127.05 781 124 781 123.5 780.75 123.3 777.25 120.25 773 118 773 117.5 772.75 117.3 771 116 769 115 769 114.5 768.8 114.4 765.75 112.8 763 111 763 110.5 762.8 110.35 753.9 105.1 745 100 745 99.5 744.8 99.35 739.6 96.4 734 94 734 93.5 733.75 93.35 728.45 89.55 722 87 722 86.5 721.85 86.45 720.05 85.95 719 85 719 84.5 718.8 84.4 707.55 78.45 696 73 696 72.5 695.8 72.4 684.55 66.45 673 61 673 60.5 672.8 60.4 662.8 55.2 652 51 652 50.5 651.8 50.4 643.95 46.05 635 43 634.5 43 634.4 43.2 617.4 76.9 600 110 600 110.5 600 111 600 111.5 600 112 599.5 112 599.4 112.2 588.95 136.45 577 159 577 159.5 577 160 577 160.5 576.8 160.9 564.6 188.1 553 216 553 216.5 553 217 553 217.5 553 218 553 218.5 552.8 218.9 545.15 236.65 539 256 539 256.5 539 257 539 257.5 539 258 539 258.5 538.85 258.95 535.2 268.2 532 278 532 278.5 532 279 532 279.5 531.85 279.95 529.3 288.8 526 297 526 297.5 526 298 526 298.5 525.95 299 525.7 302.2 524 304 524 304.5 524 305 524 305.5 523.9 306 522.1 314.6 519 322 519 323.5 519 325 519 325.5 519 326 518.5 326 518.45 326.1 514.7 342.2 510 357 510 358 510 359 510 359.5 510 360 510 360.5 509.9 361 509.5 363 508 364 508 366.5 508 369 508 369.5 508 370 507.5 370 507.5 370.05 506.75 378.25 504 384 504 384.5 504 385 504 385.5 504 386 504 386.5 503.9 387 502.85 392.35 501 397 501 399 501 401 501 401.5 501 402 501 402.5 500.9 403 499 414 497 425 497 425.5 497 426 497 426.5 497 427 497 427.5 497.1 428 497.7 430.7 496 431 496 432 496 433 496 433.5 496 434 495.5 434 495 434 495 440 495 446 495 446.5 495 447 495 447.5 494.9 448 494 454 493 460 491.85 517.15 499.5 565.9 499.5 566 500 566 500 568.5 500.5 570.9 500.5 571 501 571 501 571.5 501 572 500.9 575.25 499 572 499 571.5 498.85 571.05 495.8 562.75 491 556 491 555.5 490.85 555.05 490 553 489 551 489 550.5 488.75 550.15 486.15 546.3 484 542 484 541.5 483.75 541.15 480 536 476 531 476 530.5 475.8 530.1 475.5 529.5 475 529 475 528.5 474.75 528.15 471.25 523.25 468 518 468 517.5 467.75 517.2 465 514 462 511 462 510.5 461.85 510.05 461.15 507.85 459 507 459 506.5 458.8 506.1 456.2 501.3 452 498 452 497.5 451.95 497 451.7 495.3 450 495 450 494.5 449.75 494.2 446.9 490.55 444 487 444 486.5 443.75 486.25 439 481.5 435 476 435 475.5 434.75 475.25 427.55 467.95 421 460 421 459.5 420.75 459.25 410.55 448.45 400 438 400 437.5 399.75 437.35 397.35 435.65 396 433 396 432.5 395.75 432.25 382.1 417.9 367 405 367 404.5 366.75 404.25 365.5 403 364 402 364 401.5 363.75 401.25 357.5 395 350 390 350 389.5 349.75 389.25 342.7 382.3 334 377 334 376.5 333.75 376.3 327 371 320 366 320 365.5 319.75 365.35 293.7 347.3 267 330 267 329.5 266.75 329.35 251.6 318.9 234 311 234 311.5 233.8 311.95 220.35 344.85 210 381 210 381.5 210 382 210 382.5 210 383 210 383.5 209.85 383.95 196.6 428.6 190 480 190 484.5 190 489 190 489.5 190 490 189.5 490 189 490 188.85 526.65 193.5 558.95 193.5 559 194 559 196.6 575.9 199.5 592.9 199.5 593 200 593 201.3 602.7 203.45 611.9 203.5 612 204 612 207.85 631.65 212.45 650.9 212.5 651 213 651 216 662 218.5 673.9 218.5 674 219 674 220.65 680.85 222.45 687.9 222.5 688 223 688 223 689 223.4 689.8 223.5 690 224 690 224.8 697.7 227.4 703.8 227.5 704 228 704 228.75 710.25 230.45 715.85 230.5 716 231 716 233.85 725.65 236.45 735.9 236.5 736 237 736 238 740.5 239.45 744.85 239.5 745 240 745 240.75 748.25 241.5 751.9 241.5 752 242 752 243.25 756.7 244.45 761.9 244.5 762 245 762 245.2 764.8 246.35 766.8 246.5 767 247 767 248 771.5 249.45 775.85 249.5 776 250 776 251.8 783.2 254.45 789.85 254.5 790 255 790 256.3 795.2 258.4 799.8 258.5 800 259 800 260.35 805.65 262.45 810.85 262.5 811 263 811 264.4 814.15 265.45 817.85 265.5 818 266 818 268.7 825.3 271.45 832.85 271.5 833 272 833 273.4 836.15 274.45 839.85 274.5 840 275 840 277 845.5 279.4 850.8 279.5 851 280 851 280.8 853.2 281.45 855.9 281.5 856 282 856 283.35 860.65 285.4 864.8 285.5 865 286 865 286.8 867.2 287.45 869.9 287.5 870 288 870 288.5 872 289.4 873.8 289.5 874 290 874 293.6 882.9 297.4 891.8 297.5 892 298 892 299 895 300.4 897.8 300.5 898 301 898 302.65 902.35 304.45 906.85 304.5 907 305 907 305.5 909 306.4 910.8 306.5 911 307 911 309.4 916.1 310.5 922
L 310 922
Q 310 921.5 309.75 921.35 306.5 919 303 917 303 916.5 302.75 916.35 299 914 295 912 295 911.5 294.75 911.3 292.3 909.25 289 908 289 907.5 288.75 907.35 285.5 905 282 903 282 902.5 281.8 902.35 274.25 897.75 267 893 267 892.5 266.85 892.45 264.05 891.4 262 890 262 889.5 261.75 889.35 255.75 885.25 249 882 249 881.5 248.75 881.35 243 877.5 237 874 237 873.5 236.8 873.4 232.8 871.15 229 869 229 868.5 228.8 868.4 224.8 866.15 221 864 221 863.5 220.8 863.35 206.3 854.7 191 847 191 846.5 190.75 846.3 187.1 843.35 182 842 182 841.5 181.75 841.35 175.9 837.55 169 835 169 834.5 168.85 834.45 162.85 832.15 157 830 157 829.5 156.8 829.4 156 829 155 829 155 828.5 154.85 828.45 140.3 822.7 125 818 125 817.5 124.85 817.45 123.5 817.05 122 817 122 816.5 121.85 816.45 111.8 813.75 102 811 102 810.5 101.85 810.45 91.2 807.3 80 805 61.3 799.7 42.15 794.4 28.45 790.55 20 795 25.6 827.9 32.5 859.9 32.5 860 33 860 35.65 872.4 38.5 884.9 38.5 885 39 885 41.75 896.25 44.45 907.9 44.5 908 45 908 48.6 921.4 52.45 934.85 52.5 935 53 935 53 936.55 53.45 937.85 53.5 938 54 938 55 942.5 56.45 946.85 56.5 947 57 947 59.9 956.65 63.45 965.85 63.5 966 64 966 65.7 970.8 67.45 975.85 67.5 976 68 976 69.75 981.75 72.4 986.8 72.5 987 73 987 75.5 993 78.4 998.8 78.5 999 79 999 82.25 1005.75 86.35 1011.75 86.5 1012 87 1012 89 1016.5 91.4 1020.8 91.5 1021 92 1021 97.25 1029.25 102.35 1037.8 102.5 1038 103 1038 104.75 1040.25 106.35 1042.75 106.5 1043 107 1043 108 1045.45 109.35 1047.8 109.5 1048 110 1048 111 1050 112.3 1051.75 112.5 1052 113 1052 116.7 1057.3 120.35 1062.75 120.5 1063 121 1063 123.75 1066.75 126.35 1070.75 126.5 1071 127 1071 128.75 1073.25 130.35 1075.75 130.5 1076 131 1076 133.2 1079.3 135.35 1082.8 135.5 1083 136 1083 139.95 1087.55 143.35 1092.75 143.5 1093 144 1093 145 1094.5 146.25 1095.75 146.5 1096 147 1096 150.35 1101.15 154.3 1105.75 154.5 1106 155 1106 156.75 1108.25 158.35 1110.75 158.5 1111 159 1111 164.2 1117.3 169.3 1123.75 169.5 1124 170 1124 176.9 1131.6 183.3 1139.75 183.5 1140 184 1140 195.75 1152.75 207.3 1165.75 207.5 1166 208 1166 210.5 1169 213.25 1171.75 213.5 1172 214 1172 224.5 1183 235.25 1193.75 235.5 1194 236 1194 240.15 1196.85 243.3 1200.75 243.5 1201 244 1201 251.8 1207.2 259.2 1213.75 259.5 1214 260 1214 263.8 1216.7 267.2 1219.75 267.5 1220 268 1220 272.45 1223.1 276.25 1226.75 276.5 1227 277 1227 281.35 1229.15 284.3 1232.75 284.5 1233 285 1233 295.4 1239.1 299.5 1245.05
L 298 1245
Q 294.5 1244.95 291 1245 290.5 1245 290 1245.05 266.25 1247.25 244 1251 244 1251.5 244 1252 243.5 1252 243 1252.1 234.85 1253.35 227 1255 227 1255.5 227 1256 226.5 1256 226.05 1256.1 214.5 1258.95 204 1263 204 1263.5 204 1264 203.5 1264 203.1 1264.2 171.15 1278.65 142 1296 142 1296.5 142 1297 123.9 1307.4 106.4 1318.65 52.15 1353.65 0 1391 5.55 1398.45 17.9 1399.85 28.95 1401.05 39 1404 52.8 1406.2 65.05 1409.85 65.5 1410 66 1410 71.1 1410.45 75.05 1411.85 75.5 1412 76 1412 82.55 1413 88.05 1414.85 88.5 1415 89 1415 100.55 1417 111.05 1419.85 111.5 1420 112 1420 124.3 1421.7 135.05 1424.85 135.5 1425 136 1425 154.5 1428.5 172.05 1432.9 172.5 1433 173 1433 179.35 1433.1 184.05 1434.85 184.5 1435 185 1435 194 1436.55 202.05 1438.85 202.5 1439 203 1439 208.3 1439.25 212.1 1440.8 212.5 1441 213 1441 217.7 1441.35 222 1441.95 222.5 1442 223 1442 244.95 1447.55 268 1451.9 268.5 1452 269 1452 276.9 1452.6 284 1453.9 284.5 1454 285 1454 298.15 1457.35 312 1459.9 312.5 1460 313 1460 317.7 1460.35 322 1460.95 322.5 1461 323 1461 327.35 1463.65 335 1463.05 335.5 1463 336 1463 353.55 1466.95 372 1469.9 372.5 1470 373 1470 385.9 1471.55 398 1473.9 398.5 1474 399 1474 465.85 1485.15 544 1484.5
L 544 1484
Q 556.7 1483.7 568.95 1482.5 569 1482.5 569 1482 592.2 1480.2 613.9 1476.5 614 1476.5 614 1476 630.7 1473.7 646.9 1470.5 647 1470.5 647 1470 674.45 1464.95 700.9 1458.55 701 1458.5 701 1458 750.35 1445.85 797.05 1431.15 797.5 1431 798 1431 799.9 1437.6 800.5 1445.95 800.5 1446 801 1446 802 1453.5 803.5 1460.9 803.5 1461 804 1461 806.15 1476.35 809.5 1490.9 809.5 1491 810 1491 812.6 1507.9 816.45 1523.9 816.5 1524 817 1524 818.8 1536.2 821.45 1547.9 821.5 1548 822 1548 827 1570.5 832.45 1592.9 832.5 1593 833 1593 841.3 1624.2 851.45 1653.85 851.5 1654 852 1654 863.75 1690.75 877.45 1725.85 877.5 1726 878 1726 881.4 1736.15 885.45 1745.8 885.5 1746 886 1746 907.2 1798.85 934.35 1845.8 934.5 1846 935 1846 939.55 1853.4 944.35 1860.75 944.5 1861 945 1861 973.55 1908 1009.3 1947.75 1009.5 1948 1010 1948 1035.55 1979.45 1077.05 1994.85 1077.5 1995 1078 1995 1111.15 2003.45 1143.85 1993.55 1144 1993.5 1144 1993 1215.3 1974.8 1240.65 1910.25 1251 1884 1255 1851 1255 1850.5 1255 1850 1255 1849 1255 1848 1258.25 1832.75 1256.5 1813.05 1256.5 1813 1256 1813 1256 1812.5 1255.9 1812 1248 1762.55 1205 1748 1205 1747.5 1204.8 1747.4 1153.25 1724.25 1114 1689 1114 1688.5 1113.75 1688.25 1107.8 1682.75 1101 1678 1101 1677.5 1100.75 1677.3 1059.1 1644.4 1029 1600 1029 1599.5 1028.8 1599.1 1017.5 1577.5 1008 1554 1008 1553.5 1007.85 1553.05 1000.1 1529.85 993 1506 993 1505.5 992.85 1505.05 983.85 1478.15 977 1449 977 1448.5 976.85 1448.05 972.05 1431.5 968 1414 983.9 1418.1 999.05 1422.85 999.5 1423 1000 1423 1026.85 1432.7 1056.05 1439.9 1056.5 1440 1057 1440 1096.4 1452.1 1139 1460.9 1139.5 1461 1140 1461 1153 1463.05 1165.05 1465.9 1165.5 1466 1166 1466 1231.2 1475.25 1304 1477 1304.5 1477 1305 1477 1305.5 1477 1306 1477 1393.2 1481.25 1480 1475.9 1488.85 1475.35 1497 1474 1559.1 1471.15 1610.05 1457.15 1610.5 1457 1611 1457 1659.05 1446.55 1703.85 1432.55 1704 1432.5 1704 1432 1725.45 1426.45 1745.85 1419.55 1746 1419.5 1746 1419 1779.6 1410.1 1808.8 1396.6 1809 1396.5 1809 1396 1798.8 1383.7 1784.85 1375.2 1784.5 1375 1784 1375 1784 1374.5 1783.75 1374.3 1776.55 1368.05 1768 1363 1768 1362.5 1767.75 1362.3 1751.6 1349.35 1734 1338 1734 1337.5 1733.75 1337.3 1699.65 1311.85 1663 1289 1663 1288.5 1662.75 1288.3 1614.65 1251.85 1543 1239 1543 1238.5 1542.95 1238.5 1506.75 1233.75 1470 1230 1537.35 1207.8 1586.45 1167.3 1635.45 1126.9 1674.8 1076.65 1714.05 1026.5 1735.5 959.5 1752.5 906.5 1762 847 1762 846.5 1762 846 1765.95 832.95 1766.95 817 1767 816.5 1767 816 1767.5 816 1767.55 815.9 1771.15 800.2 1770 785 1769.5 785 1769.1 785.2 1713.05 811.05 1657 837 1656.5 837 1656.1 837.2 1597.3 865.3 1532 887 1531.5 887 1531.1 887.2 1505.35 898.35 1479 904 1496.3 880.3 1511.8 854.85 1512 854.5 1512 854 1533.4 822.9 1549.8 786.9 1550 786.5 1550 786 1560.2 766.2 1566.85 742.95 1567 742.5 1567 742 1580.7 707.65 1588.9 668 1589 667.5 1589 667 1598.7 634.2 1601.95 595 1602 594.5 1602 594 1608.55 557.2 1605.05 515 1605 514.5 1605 514 1605 513.5 1604.95 513 1602.15 483.35 1596 457 1596 456.5 1596 456 1595.85 448.15 1594 442 1594 441.5 1593.9 441 1590.85 426.65 1587 413 1587 412.5 1586.9 412 1586.45 409 1586 406 1586 405.5 1585.9 405.05 1581.25 386.75 1577 368 1577 367.5 1576.85 367.05 1572.6 354.95 1570 341 1570 340.5 1569.85 340.05 1565.5 327 1562 313 1561.55 312 1561.45 310.95 1561.25 308.3 1560.7 308.55 1510.55 331.55 1465 360 Z"/>
</g>

<g id="rose_0_Layer0_0_FILL">
<path fill="url(#Gradient_1)" stroke="none" d="
M 20 1.6
Q 17.95 -0.65 14.55 0.3 12.4 0.8 10.65 2.45
L 10.7 2.45 10.75 2.5
Q 15 3.1 16.25 6 16.5 6.75 16.7 7.6 13.1 3.45 8.1 6.5 5.9 6.25 3.25 6.1 5.7 8.85 6.5 11.6 7.25 14.05 7.15 15.4 6.95 18.1 8.4 19.25 9.25 20 10.65 20.6 14.05 22.05 16 21.2 19.15 15.05 17.2 11 18.65 5.65 26.2 5.2 27 2.5 20 1.6 Z"/>

<path fill="#B12B2B" stroke="none" d="
M 10.65 2.45
L 10.6 2.45
Q 3.1 2.2 3.25 6.1 5.9 6.25 8.1 6.5 13.1 3.45 16.7 7.6 16.5 6.75 16.25 6 15 3.1 10.75 2.5
L 10.7 2.45 10.65 2.45
M 23 12.4
Q 23.1 7.1 26.2 5.2 18.65 5.65 17.2 11 19.15 15.05 16 21.2 20.9 20.85 22.4 18.25 23.45 16.45 23 13.65 23 13.2 23 12.7 23 12.6 23 12.4 Z"/>

<path fill="#236A11" stroke="none" d="
M 23 13.65
Q 23.45 16.45 22.4 18.25 20.9 20.85 16 21.2 14.05 22.05 10.65 20.6 9.25 20 8.4 19.25 6.95 18.1 7.15 15.4 7.25 14.05 6.5 11.6 4.7 10.2 1.15 10.95 2.65 15.8 4.1 16.9 2.3 18.05 0 21.05 5.1 23.45 7.1 22.35 6.75 25.6 10.75 30 18.05 26.7 16.45 22.5 17.65 25.3 21.25 24.55 24.95 23.8 26.85 25.65 28.45 22 26.8 19.7 26 18.6 24.9 18.25 26.55 17 28 10.9 23.25 10.95 23 12.4 23 12.6 23 12.7 23 13.2 23 13.65 Z"/>
</g>
</defs>

<g transform="matrix( 1.0250244140625, 0, 0, 1.0885772705078125, 0,0) ">
<g transform="matrix( 1, 0, 0, 1, 0,3) ">
<g transform="matrix( 1, 0, 0, 1, 0,0) ">
<use xlink:href="#the_seasons_0_Layer0_0_FILL"/>
</g>
</g>

<g transform="matrix( 1.035125732421875, 0, 0, 1, 217.65,0) ">
<g transform="matrix( 1, 0, 0, 1, 0,0) ">
<use xlink:href="#snowflake_0_Layer0_0_FILL"/>
</g>
</g>

<g transform="matrix( 1.0283355712890625, 0, 0, 1.0169525146484375, 250.05,0) ">
<g transform="matrix( 1, 0, 0, 1, 0,0) ">
<use xlink:href="#sun_0_Layer0_0_FILL"/>
</g>
</g>

<g transform="matrix( 0.0154571533203125, 0, 0, 0.0149993896484375, 186.3,0) ">
<g transform="matrix( 1, 0, 0, 1, 0,0) ">
<use xlink:href="#leaf_red_0_Layer0_0_FILL"/>
</g>
</g>

<g transform="matrix( 1.03570556640625, 0, 0, 1, 281.7,0) ">
<g transform="matrix( 1, 0, 0, 1, 0,0) ">
<use xlink:href="#rose_0_Layer0_0_FILL"/>
</g>
</g>
</g>
</svg>
