
<svg xmlns="http://www.w3.org/2000/svg" version="1.1" xmlns:xlink="http://www.w3.org/1999/xlink" preserveAspectRatio="none" x="0px" y="0px" width="330px" height="80px" viewBox="0 0 330 80">
<defs>
<linearGradient id="Gradient_1" gradientUnits="userSpaceOnUse" x1="292.1875" y1="11.75" x2="316.61249999999995" y2="11.75" spreadMethod="pad">
<stop  offset="0%" stop-color="#B12B2B"/>

<stop  offset="100%" stop-color="#6A1111"/>
</linearGradient>

<g id="Layer0_0_MEMBER_0_MEMBER_0_MEMBER_0_MEMBER_0_MEMBER_0_FILL">
<path fill="#FFFFFF" stroke="none" d="
M 48.35 31.05
Q 48.35 28.9 47.25 27.35 46.1 25.75 44.4 24.55 42.65 23.35 40.45 22.6 38.3 21.85 36 21.4
L 31.8 20.65
Q 30 20.45 28.5 20.45 25.6 20.45 22.65 21 19.45 21.6 16.7 23 14 24.35 12.1 26.65 10.3 28.9 10.3 32.55 10.3 34.4 10.8 36.05 11.3 37.7 12.2 39.45 13.2 41.1 14.5 42.3 15.7 43.45 17.3 44.45
L 44.05 59.95
Q 45.45 60.75 46.15 61.5 46.9 62.25 47.25 63.05 47.5 63.65 47.65 64.9
L 47.75 67.3
Q 47.85 70.3 45.95 71.7 44.1 73.2 41.35 73.8 38.7 74.35 35.7 74.45 32.8 74.45 31 74.6 25.1 74.3 20.9 73.6 16.4 73 12.55 71.05 8.9 69.2 6.85 65.55 4.75 61.95 4.75 55.75 3.85 55.75 2.85 56.4 1.95 57.1 1.35 58.1 0.65 59.1 0.35 60.15 0 61.25 0 62.25 0.9 65.95 3.55 69.1 6.25 72.1 10.05 74.3 13.9 76.65 18.5 77.9 23.25 79.3 27.75 79.75 32.3 80.2 36.8 79.8 41.1 79.45 44.85 77.95 48.45 76.6 50.8 74.1 53.15 71.6 53.6 68.15 54.05 64.8 52.55 62 51 59.2 48.4 56.9 45.95 54.65 42.2 52.5 38.45 50.4 34.9 48.65 32.35 47.3 27.5 45 24 43.3 20.95 41.25 18.05 39.25 16.25 37.15 14.6 35 14.6 32.4 14.6 29.7 16.45 28.2 18.3 26.7 20.85 26.05 23.3 25.35 26.1 25.1
L 30.5 24.95
Q 32.4 24.75 34.1 25.35 35.85 25.9 37.4 26.85
L 43.15 30.5
Q 44.5 31.25 45.8 31.55 47.1 31.8 48.35 31.05
M 61.8 7.15
L 62.45 3.85 48.05 3.85 47.4 7.15 52.85 7.15 49.65 23.15 53.1 23.15 56.35 7.15 61.8 7.15
M 73.25 9.1
Q 72.5 8.6 71.35 8.6 70 8.6 68.6 9.45 67.2 10.15 66.25 11.55
L 67.95 3.3 64.45 3.3 60.5 23.15 63.95 23.15 65.6 14.85
Q 65.95 14 66.65 13.3 67.35 12.65 68 12.25 68.7 11.85 69.2 11.85 69.95 11.85 70.4 12.35 70.8 12.85 70.8 13.85
L 70.75 14.45 69.05 23.15 72.5 23.15 74.45 13.1 74.5 12
Q 74.5 11.15 74.25 10.3 73.95 9.55 73.25 9.1
M 87.4 33.6
Q 86.05 31.65 83.8 30.3 81.5 28.9 78.6 28.55 73.6 28.55 69.75 30.6 66 32.65 63.25 36.1 60.6 39.65 59.2 44.1 57.8 48.6 57.8 53.65 57.8 59.7 59.85 64.3 61.9 69.05 65.35 72.35 68.9 75.6 73.45 77.5 78.15 79.25 83.3 79.25 85.65 79.25 87.9 78.9 90.3 78.55 92.8 77.7 95.3 76.85 97.5 75.5 99.7 74.25 101.15 72.1
L 85 73.25
Q 79.3 72.95 75.6 71.85 72 70.85 69.35 69.1 66.75 67.25 65.6 65.25 64.3 63.05 63.75 60.6 63.15 58.55 63 55.75
L 62.95 50.75
Q 62.95 47.55 63.95 44.55 64.95 41.5 66.7 39.15 68.65 36.65 71.1 35.2 73.6 33.65 76.8 33.35 78.9 33.2 80.4 34.05 81.95 34.9 83.1 36.35 84.3 37.7 84.9 39.6 85.45 41.55 85.45 43.4 85.45 45.2 83.65 47.05 81.65 49.15 79.35 50.35 76.75 51.95 74.5 52.7 72.15 53.65 70.85 53.65
L 67.4 53.05
Q 66.1 52.95 65.6 53.1 64.95 53.25 64.8 53.6 64.65 53.9 64.65 54.4 64.65 55.9 65.2 56.7 65.65 57.35 66.65 57.85 67.5 58.2 68.65 58.2
L 70.85 58.2
Q 73.9 58.2 77.1 57.25 80.5 56.2 83.3 54.35 86.15 52.5 88.1 49.7 89.95 46.95 89.95 43.5 89.95 40.4 89.4 38.15 88.8 35.5 87.4 33.6
M 84.4 8.6
Q 82.65 8.6 81.05 9.35 79.45 10.05 78.35 11.25 77.2 12.5 76.6 14.05 75.95 15.55 75.95 17.4 75.95 19.2 76.6 20.5 77.2 21.85 78.5 22.65 79.65 23.45 81.4 23.45 82.55 23.45 84.05 22.95 85.15 22.55 86.4 21.65 87.45 20.8 88.15 19.75
L 85.4 18.8
Q 84.85 19.75 84 20.25 83.05 20.75 82.05 20.75 81.15 20.75 80.5 20.35 79.85 19.9 79.6 19.2 79.3 18.45 79.3 17.5
L 79.3 17.15 81.4 17.2
Q 85.4 17.2 87.25 16.05 89.2 14.85 89.2 12.6 89.2 11.35 88.6 10.5 88.05 9.6 86.9 9.1 85.75 8.6 84.4 8.6
M 123.4 36
Q 125.6 36 128.05 37.3 130.6 38.7 132.6 40.7 134.8 42.8 136.1 45.3 137.45 47.85 137.45 50.35
L 137.55 52.2
Q 131.9 49.85 127.4 49.35 122.7 48.75 119.3 49.45 115.8 50.15 113.15 51.7 110.55 53.25 108.8 55.25 107.05 57.3 106.25 59.35 105.45 61.45 105.35 63.1 105.35 68.1 107.65 71.2 110 74.35 113.5 76.15 116.85 77.9 121.25 78.6 125.3 79.25 129.25 79.25 129.95 79.25 131.75 78.95
L 139.75 76.95
Q 142.75 75.9 143.75 75.5 145.4 74.95 146.65 74.2 147.8 73.6 147.8 72.95
L 147.75 71.8
Q 147.6 71.25 146.9 70.95
L 146.3 70.95
Q 145.75 70.95 145.45 70.9 145.1 70.85 144.45 70.85
L 143.85 70.85
Q 141.5 70.85 139.15 71.15
L 134.4 71.8
Q 131.35 72.3 129.6 72.45 127.2 72.75 124.65 72.75 123.35 72.75 120.55 72.35 118.05 71.95 115.65 71 113.2 69.95 111.5 68.4 109.8 66.85 109.8 64.5 109.8 62.45 110.75 60.9 111.6 59.3 113.25 58.15 114.8 57 116.9 56.15 119.15 55.3 120.9 54.9 122.4 54.5 124.65 54.2 126.3 54 127.9 54 129.5 54.4 131.15 54.95 133.2 55.6 135.45 57.1 137.65 58.65 140.05 61.5 142.5 64.4 144.3 68.75
L 144.75 68.8 145.65 69 147.15 69.15
Q 147.65 65.35 147.05 60.95 146.6 56.55 145.2 52.55 143.85 48.4 141.8 44.5 139.75 40.65 136.95 37.65 134.1 34.65 130.9 32.75 127.65 30.75 124 30.4 122.6 30.4 121.3 30.85 119.9 31.25 118.95 32.05 117.9 32.8 117.3 34.05 116.75 35.15 116.75 37 116.75 37.15 117.05 37.35
L 117.7 38
Q 117.7 38.15 117.9 38.15 118.6 38.15 119.3 37.8
L 120.5 37.05
Q 121.3 36.5 121.8 36.35 122.45 36 123.4 36
M 163.2 40.8
Q 165.5 40 167.95 39.8 170.6 39.55 172.75 40 174.95 40.35 176.7 41.5 178.4 42.55 178.75 44.35 177.8 46.15 177.7 47.4 177.7 48.7 178.1 49.15 178.65 49.85 179.4 49.85 180.3 49.85 181 49.3 181.7 48.7 182.15 47.45 182.65 46.25 182.5 44.3 182.35 40.95 180.35 38.8 178.25 36.55 175.3 35.6 172.15 34.6 168.7 34.65 164.9 34.75 161.9 35.8 158.65 36.85 156.4 38.95 154.1 40.95 153.5 44.05 153.65 48.25 155.15 50.95 156.75 53.65 159.2 55.15 161.55 56.6 164.95 57.4 168.25 58.2 171.45 58.55
L 177.95 59.25
Q 181.15 59.55 183.6 60.45 186.1 61.25 187.65 62.9 189.15 64.45 189.05 67.25 189.05 70.05 187.3 71.5 185.5 72.9 183.2 73.4 180.85 73.9 178 73.9
L 173.45 73.85
Q 171.05 73.85 169.45 73.7 168 73.65 166.8 73.25 165.6 72.9 164.25 72.2
L 160.5 70.45
Q 159.75 70.1 158.95 69.55
L 157.55 68.35
Q 157 67.8 156.1 67.25 155.3 66.8 154.45 66.8 153.7 66.8 153.1 66.95 152.3 67.3 151.85 67.7 152.95 70.75 154.9 72.75 156.7 74.7 159.15 76.05 161.4 77.3 164.35 77.95 166.9 78.6 169.85 78.9 173.55 79.2 175.3 79.2
L 180.3 79.25
Q 182.7 79.25 185.25 78.6 187.9 77.95 190.05 76.5 192.25 75.1 193.7 72.9 195.15 70.75 195.15 67.8 195.15 63.9 193.65 61.4 192.15 59 189.5 57.55 186.8 56.1 183.6 55.5 180.75 54.95 176.9 54.55
L 170.2 53.8
Q 166.85 53.45 164.35 52.6 161.8 51.7 160.25 50.15 158.65 48.55 158.65 45.7 158.5 44.05 159.8 42.8 161 41.6 163.2 40.8
M 228.35 39.6
Q 226.35 38.7 224 38.7 219.65 38.7 215.2 40 210.8 41.25 207.3 43.95 203.9 46.55 201.65 50.6 199.45 54.55 199.45 59.75 199.45 64.3 200.95 67.95 202.4 71.7 204.95 74.1 207.55 76.65 211 77.95 214.45 79.4 218.55 79.4 222.55 79.4 226.5 77.95 230.3 76.6 233.4 73.95 236.5 71.3 238.3 67.5 240.1 63.7 240.1 58.8 240.1 56.8 239.55 54.45 239.1 52.55 238 50 236.8 47.55 235.55 45.75 234.2 43.85 232.2 42.1 230.2 40.45 228.35 39.6
M 221.9 44.35
Q 227.05 46.25 230.1 48.7 233.1 51.05 234.2 53.6 235.3 56.1 235 58.65 234.7 61.3 233.3 63.55 232.05 65.85 229.95 67.85 227.95 69.8 225.75 71.15 223.55 72.55 221.35 73.3 219.05 74 217.6 73.85 214.7 73.85 212.15 72.65 209.7 71.45 207.8 69.4 205.95 67.5 204.95 64.7 203.9 61.95 203.9 58.95 203.9 55.35 205.6 52.6 207.25 49.8 209.9 48 212.65 46.1 215.75 45.25 218.9 44.35 221.9 44.35
M 245.3 41.95
L 245.3 47.75
Q 245.3 50 245.5 55.6 245.85 60.55 246.35 64.1 246.95 68.45 248 71.8 249 75.25 250.7 77.5 252.4 79.65 254.95 79.65 254.95 76.5 254.45 73.55
L 253.2 67.45
Q 252.5 64.35 252 61.4 251.45 58.35 251.45 55.4 251.45 52.25 252.5 49.7 253.5 47.1 255.3 45.3 257.1 43.55 259.55 42.55 262 41.55 264.8 41.55 267.8 41.55 270.4 44.45 273 47.4 274.8 52.2 276.55 56.95 277.4 63.55 278.25 70 277.4 77.35 277.4 77.75 277.7 77.9 278.05 78.15 278.45 78.3
L 280 78.5
Q 281.15 78.5 281.8 77.2 282.55 75.95 282.85 74.2
L 283.45 68.15
Q 283.45 65.7 283 62.3 282.55 59.05 281.55 55.3 280.35 51.3 279.1 48.25 277.75 45 275.6 42.05 273.5 39.2 271.05 37.6 268.5 35.95 265.4 35.95 263.05 35.95 260.7 37 258.75 37.8 256.2 39.25
L 252.25 41.55
Q 250.5 42.65 249.2 42.65 248.75 42.65 248.55 42.3
L 248 40.9
Q 247.75 40.65 247.2 40.65 246.45 40.65 245.9 40.85 245.3 41.15 245.3 41.95
M 328.5 61.4
Q 326.85 58.9 324.35 57.55 321.65 56.1 318.45 55.5 315.6 54.95 311.75 54.55
L 305 53.8
Q 301.65 53.4 299.2 52.6 296.65 51.7 295.1 50.15 293.5 48.6 293.5 45.7 293.35 44.05 294.6 42.8 295.9 41.55 298.05 40.8 300.35 40 302.75 39.8 305.45 39.55 307.6 40 309.8 40.35 311.55 41.5 313.25 42.55 313.6 44.35 312.65 46.15 312.55 47.4 312.5 48.6 312.95 49.15 313.4 49.85 314.25 49.85 315.1 49.85 315.85 49.3 316.55 48.7 317 47.45 317.5 46 317.3 44.3 317.25 40.95 315.15 38.8 313.15 36.6 310.15 35.6 307 34.6 303.55 34.65 299.8 34.75 296.7 35.8 293.5 36.85 291.25 38.95 288.95 40.95 288.35 44.05 288.5 48.25 290 50.95 291.6 53.65 294.05 55.15 296.4 56.6 299.8 57.4 303.1 58.2 306.3 58.55
L 312.8 59.25
Q 316 59.55 318.45 60.45 320.95 61.25 322.5 62.9 324 64.45 323.9 67.25 323.9 70.05 322.15 71.5 320.35 72.9 318.05 73.4 315.7 73.9 312.85 73.9
L 308.3 73.85
Q 305.9 73.85 304.3 73.7 302.85 73.65 301.65 73.25 300.45 72.9 299.1 72.2
L 295.35 70.45
Q 294.6 70.1 293.8 69.55
L 292.4 68.35
Q 291.85 67.8 290.95 67.25 290.15 66.8 289.3 66.8 288.55 66.8 287.95 66.95 287.15 67.3 286.65 67.7 287.85 70.75 289.75 72.75 291.55 74.7 294 76.05 296.25 77.3 299.2 77.95 301.75 78.6 304.7 78.9 308.4 79.2 310.15 79.2
L 315.1 79.25
Q 317.55 79.25 320.1 78.6 322.75 77.95 324.9 76.5 327.1 75.1 328.55 72.9 330 70.75 330 67.8 330 63.9 328.5 61.4 Z"/>
</g>

<g id="Layer0_0_MEMBER_1_MEMBER_0_MEMBER_0_MEMBER_0_MEMBER_0_FILL">
<path fill="#0096D8" stroke="none" d="
M 243.35 2.95
L 243.3 2.95
Q 243.15 2.25 242.3 2.15
L 242.05 2.2
Q 240.1 3.7 238.6 5.4
L 238.6 5.3
Q 238.7 2.75 238.55 0.8
L 238.5 0.75
Q 238.2 0.3 237.75 0
L 237.65 0
Q 237.1 0 236.7 0.3
L 236.7 0.4
Q 236.5 0.55 236.5 0.8 236.3 3.05 236.2 5.35
L 235.4 4.55
Q 234.8 3.95 234.15 3.05 233.5 2.25 232.3 2.15
L 232.25 2.15
Q 231.7 2.45 231.5 2.95
L 231.5 3.8 236.2 8.8 236.3 8.85 236.3 12.6 234.95 13.45 231.7 11.6 230.7 7.25
Q 230.35 5.5 229.5 4.3
L 229.4 4.3
Q 228.85 4.3 228.45 4.45
L 228.45 4.55 228.4 4.55
Q 228.05 4.8 227.8 5.3
L 227.85 5.4 228.85 9.8
Q 227.6 9 224.9 7.6
L 224.8 7.6
Q 224.3 7.7 223.9 8.05
L 223.9 8.1 223.65 8.6
Q 223.65 9.15 223.9 9.5
L 223.9 9.55 223.95 9.55
Q 225.5 10.65 227.75 11.9
L 227.75 11.95 223.65 13.15 223.6 13.2
Q 223.3 13.3 223.05 13.75
L 223.05 14.65
Q 223.95 15.85 225.6 15.15
L 228.25 14.25 230.4 13.7 230.45 13.7
Q 232.6 14.8 234.05 15.7
L 234.05 16.95
Q 232.5 18 231.2 18.7
L 231.2 18.8 230.7 18.85
Q 229.1 18.8 227.6 18.25 225.75 17.65 223.85 17.35
L 223.75 17.4
Q 223.65 17.5 223.05 18.05
L 223.05 19
Q 223.2 19.25 223.6 19.55
L 223.65 19.55 223.65 19.6 227.75 20.75 227.75 20.8
Q 225.7 21.9 223.9 23.25
L 223.65 23.6
Q 223.65 24.8 224.55 25.1 225.85 24.9 226.85 24.2 227.65 23.55 228.85 22.85 228.5 24.85 228.05 26.4
L 228.05 26.5 228 26.5
Q 228 26.85 227.8 26.9 227.7 28.05 228.6 28.35
L 228.6 28.4 229.5 28.4
Q 229.9 28 230 27.75
L 230.05 27.75 230.4 26.25 230.45 26.25 230.45 25.95
Q 231.3 23 231.7 21.15
L 231.75 21.15 235.2 19.1 236.3 19.95
Q 236.3 22.15 236.1 24.1
L 236 24.25 235.95 24.35 235.9 24.35 233.1 27.15 233.1 27.25 233.05 27.25 231.55 28.8 231.55 29.05 231.5 29.05
Q 231.4 29.6 231.5 29.9
L 231.55 30
Q 231.8 30.4 232.25 30.55 232.8 30.6 233.2 30.45
L 233.25 30.4 233.25 30.35
Q 234.5 29.2 235.85 27.8
L 235.9 27.75 235.9 27.65
Q 236.15 27.35 236.25 27.5 236.35 27.6 236.35 28.2
L 236.3 31.75 236.35 31.9
Q 236.65 32.45 237.35 32.7
L 237.4 32.7
Q 238.2 32.55 238.5 31.95
L 238.55 31.95
Q 238.7 30 238.6 27.4
L 238.6 27.3
Q 240.35 29.2 241.95 30.55
L 242 30.55
Q 242.95 30.6 243.25 30 243.35 29.75 243.35 29.1
L 243.35 29.05
Q 242.8 28.2 242 27.5
L 241.9 27.45 241.9 27.4 238.6 23.9 238.6 20.2 240.1 19.35 243 21.1 243.05 21.15
Q 243.5 22.45 243.85 24.25
L 243.85 24.35
Q 244.3 26.4 245.1 28
L 245.3 28.25
Q 245.6 28.4 246.25 28.4
L 246.3 28.4 246.95 27.6 246.95 27.45 246 22.95
Q 247.65 23.95 249.35 24.75
L 249.35 24.8 249.45 24.8 250.15 25.1 250.25 25.1
Q 250.95 24.95 251.1 24.2
L 251.15 24.15
Q 251.15 23.55 250.9 23.15
L 250.9 23.1 250.3 22.7 250.25 22.7 250.2 22.65
Q 248.6 21.85 247.1 20.75
L 248.1 20.5 248.15 20.5 248.15 20.4 251.05 19.65 251.05 19.6
Q 251.55 19.35 251.7 19
L 251.7 18.05
Q 251.45 17.6 251 17.35
L 250.9 17.35
Q 248.8 17.75 246.4 18.5
L 246.4 18.55 246.3 18.55
Q 245.25 18.85 244.15 19
L 244.15 18.95 242.65 18.15 242.6 18.15 241 17.1 241 15.6 244.15 13.75 244.15 13.7 250.9 15.35 251 15.35 251.65 14.85 251.7 14.7
Q 251.85 14.25 251.7 13.7
L 251.7 13.6
Q 250.4 12.6 248.4 12.35
L 247.1 11.9
Q 248 11.45 249.05 10.75
L 249.1 10.75
Q 250.45 10.1 251.15 9.05
L 251.15 9
Q 251.1 7.75 250 7.6 248.2 8.35 246.7 9.55 246.1 10 246 9.45 246.4 8.2 246.55 7.2
L 246.65 7.1 246.65 7.05
Q 247.1 6.05 246.95 4.85
L 246.9 4.85
Q 246.5 4.45 246.25 4.3
L 246.15 4.3
Q 245.7 4.3 245.3 4.45
L 245.2 4.65 245.2 4.7
Q 244.9 5.15 244.7 5.95 243.85 8.6 243.05 11.6
L 243 11.6 242.3 12.05 242.3 12.15 242.15 12.15
Q 241.75 12.45 241.3 12.6
L 241.25 12.65 239.95 13.45 238.6 12.85 238.6 8.85 242.75 4.55 243.35 3.8 243.35 2.95 Z"/>
</g>

<g id="Layer0_0_MEMBER_2_MEMBER_0_MEMBER_0_MEMBER_0_MEMBER_0_FILL">
<path fill="#B38422" stroke="none" d="
M 284.5 16.45
L 286 11.45 282.05 8.2 280.4 3.2 275.4 3 271.35 0 267.2 2.95 262.15 2.95 260.45 7.95 256.4 11.05 257.8 16.15 256.3 21.2 260.25 24.45 261.85 29.45 266.9 29.6 270.95 32.7 275.1 29.7 280.2 29.7 281.85 24.65 285.9 21.55 284.5 16.45
M 277.9 9.65
L 278.05 9.8 278.2 10.05
Q 280.6 12.75 280.6 16.45 280.6 20.5 277.9 23.35 275.2 26.2 271.4 26.2 267.55 26.2 264.85 23.35 262.1 20.55 262.1 16.45 262.1 12.5 264.85 9.65 267.5 6.85 271.4 6.85 275.25 6.85 277.9 9.65
M 276.75 11.2
L 276.55 11.05
Q 274.5 8.85 271.4 8.85 268.3 8.85 266.3 11.05 264.1 13.35 264.1 16.5 264.1 19.75 266.3 21.95 268.35 24.2 271.4 24.2 274.45 24.2 276.55 21.95 278.75 19.7 278.75 16.5 278.75 13.6 276.9 11.5
L 276.75 11.2 Z"/>
</g>

<g id="Layer0_0_MEMBER_3_MEMBER_0_MEMBER_0_MEMBER_0_MEMBER_0_FILL">
<path fill="#581112" fill-opacity="0.996078431372549" stroke="none" d="
M 215.7 5.1
L 215.65 5.05 212.9 6.7 212 7.4
Q 211.25 8.1 210.7 9
L 210.65 9 210.6 9.1 210.6 9.05 210.8 7.45
Q 210.95 6.65 210.9 5.85
L 210.65 4.4 210.65 4.35 210.6 4.25 210.55 4.1 210.55 4.05 210.35 3.4 210.25 3.2 210.1 2.75 210.1 2.7 209.7 1.85 209.5 1.6 209.45 1.55 209.45 1.5 209.35 1.35 209.35 1.3 209.25 1.25 209.25 1.2 209.2 1.1 209.1 1 209.1 0.95 209.05 0.95 209 0.8 208.8 0.55 208.75 0.5 208.75 0.45 208.65 0.35 208.65 0.3 208.35 0 208.35 0.05
Q 207.95 0.25 207.7 0.5
L 207.25 0.8 207.25 0.85 206.75 1.2
Q 205.9 1.9 205.4 2.75
L 205.2 3.05 205.2 3.1 204.85 3.7 204.7 3.5 204.4 3.2 204.4 3.15 204.3 3.05 204.3 3 204.15 2.9 204.15 2.85 203.55 2.25 203.45 2.2 203.45 2.15 203.3 2.05 203.2 1.95 203.1 1.9 203.05 1.85 203 1.85 202.75 1.65 202.55 1.55 202.4 1.45 202.35 1.45 202.35 1.4 201.25 0.85 201 0.75 200.45 1.8 200.45 1.85 200.1 2.6 200.1 2.65 199.7 3.55 199.7 3.6 199.5 4.2 199.5 4.25 199.45 4.25 199.35 4.55 199.35 4.6 199.25 4.85 199.25 5 199.15 5.3 199.15 5.35 199 5.85 199 6.05 198.9 6.3 198.9 6.35 198.85 6.5 198.85 6.6 198.8 6.95 198.8 7.35 198.75 7.55
Q 198.75 8.75 198.85 9.25
L 198.85 9.35 198.7 9.1 198.7 9 198.5 8.7 198.45 8.65 198.35 8.5 198.35 8.45 198.2 8.3 198.1 8.15 197.95 8 197.95 7.95 197.85 7.8 197.6 7.55 197.6 7.5 197.25 7.2 197.25 7.15 196.5 6.4 196.25 6.2 196.2 6.15 194.65 5.1 194.25 6.25 194.25 6.3
Q 194 7.05 193.95 7.85
L 194 9.15 194.45 11.25 194.5 11.3 194.75 12.2 194.75 12.3 194.8 12.45 194.85 12.55 194.95 12.9 195 12.9 195.15 13.4 195.25 13.6 195.25 13.65 195.3 13.75 195.35 13.9 195.4 14 195.45 14.15 195.5 14.25 195.5 14.3 195.55 14.3 195.65 14.6 195.7 14.7 195.75 14.85 195.8 14.9 195.8 15.05 195.6 14.9 195.5 14.85 195.4 14.75 195.15 14.6 195.1 14.55 194.9 14.45 194.9 14.4 194.7 14.3 194.55 14.2 194.45 14.15 194.45 14.1 193.95 13.85 193.8 13.75 193.6 13.65 193.4 13.6 193.4 13.55 192.9 13.4 192.9 13.35 192.85 13.35 191.6 13
Q 191.4 12.95 191.25 13
L 191.55 14.45 191.55 14.5 191.75 15.3 191.8 15.3 191.8 15.35 192 15.95 192.3 16.55 192.55 16.95 192.6 17.05 192.65 17.05 192.65 17.15 192.7 17.15 192.7 17.2 192.75 17.2 192.85 17.4 192.95 17.5 193 17.6 193.1 17.7 193.2 17.85 193.25 17.9 193.4 18.1 193.45 18.15 193.6 18.35 193.65 18.4 194.2 19.05 194.25 19.05 194.3 19.15 194.35 19.15 194.65 19.5 194.7 19.5 194.8 19.65 195.05 19.85 195.15 19.95 195.2 19.95 195.3 20.05 195.35 20.05 195.45 20.15 195.7 20.35 195.55 20.35 194.55 20.5 194.55 20.55 194.5 20.55 194.15 20.65 192.6 21.55 190.95 22.75 191.2 22.9 191.95 23.05 192 23.05 192.35 23.15 193.65 23.4 193.7 23.4 193.85 23.45 194.15 23.5 194.3 23.55 194.45 23.55 195.2 23.75 195.45 23.75 195.9 23.85 196.05 23.9 196.25 23.9 196.85 24.05 197.25 24.1
Q 198.3 24.25 199.55 24.25
L 199.95 24.25 199.95 24.2 201.2 24.05 203.55 23.4 203.6 23.4 203.6 23.65 203.65 23.65 203.65 23.9 203.7 23.9 203.85 24.9 203.9 24.9 203.95 25.3 204.15 26.05
Q 204.2 26.5 204.45 27.05
L 204.95 28.55 205.75 30.15 205.9 30.4
Q 206.4 31.25 206.95 31.85 207.4 32.4 208 32.6 208.55 32.75 209.05 32.6
L 209.05 32.55
Q 210.25 32.25 210.6 31.2 210.8 30.7 210.8 30.25
L 210.8 30.2 210.85 29.65 210.85 29.6
Q 210.7 28.75 210.05 28.55 209.15 28.15 208.6 27.6
L 208.4 27.4
Q 207.65 26.8 207.25 26.15
L 206.9 25.4 206.4 23.7 206.4 23.65 206.25 23.1 206.75 23.25 206.8 23.25 207.65 23.55 207.7 23.55 209 23.9 211.6 24.15 211.65 24.15
Q 213.15 24.25 214.4 24.1
L 214.65 24.1
Q 215.65 24.05 216.45 23.8
L 219.6 22.85 219.6 22.8
Q 219.35 22.55 219.2 22.5
L 219.2 22.45 218.95 22.3 218.95 22.25 217.3 21.05
Q 216.5 20.45 215.4 20.25
L 214.25 20.1
Q 215.4 19.7 216.05 19.1 216.8 18.5 217.45 17.6 218 16.9 218.45 15.7
L 219 12.85 218.95 12.85 214.35 14.8 214.9 14 214.9 13.95 215.5 12.85 216.1 10.95 216.1 10.9
Q 216.3 10.2 216.3 9.75
L 216.3 9.7
Q 216.45 9.2 216.35 8.45
L 216.35 8.4
Q 216.35 7.9 216.2 7.5
L 216.2 7.25 216.1 6.75 216.05 6.65 215.9 6.05 215.9 6 215.7 5.15 215.7 5.1 Z"/>
</g>

<g id="Layer0_0_MEMBER_4_MEMBER_0_MEMBER_0_MEMBER_0_MEMBER_0_FILL">
<path fill="url(#Gradient_1)" stroke="none" d="
M 316.55 5.7
Q 317.4 2.75 309.95 1.75 307.75 -0.7 304.15 0.35 301.85 0.9 300.05 2.7
L 300.1 2.7 300.15 2.75
Q 304.65 3.45 306 6.55
L 306.45 8.3
Q 302.65 3.8 297.3 7.1 294.95 6.8 292.15 6.65 294.8 9.65 295.6 12.65 296.45 15.4 296.3 16.8 296.1 19.75 297.65 21 298.6 21.8 300.05 22.45 303.65 24 305.7 23.1 309.05 16.5 307 12 308.5 6.15 316.55 5.7 Z"/>
</g>

<g id="Layer0_0_MEMBER_4_MEMBER_0_MEMBER_0_MEMBER_0_MEMBER_1_FILL">
<path fill="#B12B2B" stroke="none" d="
M 313.15 13.5
Q 313.25 7.75 316.55 5.7 308.5 6.15 307 12 309.05 16.5 305.7 23.1 310.95 22.75 312.5 19.9 313.6 18 313.15 14.9
L 313.15 13.5
M 306.45 8.3
L 306 6.55
Q 304.65 3.45 300.15 2.75
L 300.1 2.7 300 2.7
Q 292 2.4 292.15 6.65 294.95 6.8 297.3 7.1 302.65 3.8 306.45 8.3 Z"/>
</g>

<g id="Layer0_0_MEMBER_4_MEMBER_0_MEMBER_0_MEMBER_0_MEMBER_2_FILL">
<path fill="#236A11" stroke="none" d="
M 313.15 13.5
L 313.15 14.9
Q 313.6 18 312.5 19.9 310.95 22.75 305.7 23.1 303.65 24 300.05 22.45 298.6 21.8 297.65 21 296.1 19.75 296.3 16.8 296.45 15.4 295.6 12.65 293.7 11.15 289.95 11.95 291.55 17.2 293.1 18.4 291.15 19.65 288.7 22.95 294.15 25.55 296.25 24.35 295.85 27.9 300.15 32.7 307.85 29.1 306.2 24.5 307.5 27.6 311.3 26.75 315.2 25.9 317.25 27.95 318.9 23.95 317.2 21.45 316.3 20.25 315.15 19.9 316.85 18.65 318.45 11.9 313.35 12 313.15 13.5 Z"/>
</g>
</defs>

<g transform="matrix( 0.7945098876953125, 0, 0, 0.794525146484375, 34.05,8.25) ">
<use xlink:href="#Layer0_0_MEMBER_0_MEMBER_0_MEMBER_0_MEMBER_0_MEMBER_0_FILL"/>
</g>

<g transform="matrix( 0.7945098876953125, 0, 0, 0.794525146484375, 34.05,8.25) ">
<use xlink:href="#Layer0_0_MEMBER_1_MEMBER_0_MEMBER_0_MEMBER_0_MEMBER_0_FILL"/>
</g>

<g transform="matrix( 0.7945098876953125, 0, 0, 0.794525146484375, 34.05,8.25) ">
<use xlink:href="#Layer0_0_MEMBER_2_MEMBER_0_MEMBER_0_MEMBER_0_MEMBER_0_FILL"/>
</g>

<g transform="matrix( 0.7945098876953125, 0, 0, 0.794525146484375, 34.05,8.25) ">
<use xlink:href="#Layer0_0_MEMBER_3_MEMBER_0_MEMBER_0_MEMBER_0_MEMBER_0_FILL"/>
</g>

<g transform="matrix( 0.7945098876953125, 0, 0, 0.794525146484375, 34.05,8.25) ">
<use xlink:href="#Layer0_0_MEMBER_4_MEMBER_0_MEMBER_0_MEMBER_0_MEMBER_0_FILL"/>
</g>

<g transform="matrix( 0.7945098876953125, 0, 0, 0.794525146484375, 34.05,8.25) ">
<use xlink:href="#Layer0_0_MEMBER_4_MEMBER_0_MEMBER_0_MEMBER_0_MEMBER_1_FILL"/>
</g>

<g transform="matrix( 0.7945098876953125, 0, 0, 0.794525146484375, 34.05,8.25) ">
<use xlink:href="#Layer0_0_MEMBER_4_MEMBER_0_MEMBER_0_MEMBER_0_MEMBER_2_FILL"/>
</g>
</svg>
